# xmcd
#
# Track frame offsets: 
#        150
#        19408
#        41180
#        55343
#        84756
#        101827
#        122588
#        138906
#
# Disc length: 2194 seconds
#
# Revision: 6
# Processed by: cddbd v1.5.2PL0 Copyright (c) Steve Scherf et al.
# Submitted via: ExactAudioCopy v1.1
#
DISCID=67089008
DTITLE=Muddy Waters - Electric Mud
DYEAR=1968
DGENRE=Blues
TTITLE0=I Just Want To Make Love To You (stereo)
TTITLE1=I'm Your Hoochie Coochie Man (stereo)
TTITLE2=Let's Spend The Night Together (stereo)
TTITLE3=She's Alright (stereo)
TTITLE4=Mannish Boy (stereo)
TTITLE5=Herbert Harper's Free Press News (stereo)
TTITLE6=Tom Cat (stereo)
TTITLE7=The Same Thing (stereo)
EXTD=
EXTT0=
EXTT1=
EXTT2=
EXTT3=
EXTT4=
EXTT5=
EXTT6=
EXTT7=
PLAYORDER=
